# xmcd CD database file
#
# Track frame offsets:
#	150
#	16890
#	35210
#	49382
#	62998
#	78269
#	94659
#	111140
#	130563
#	145214
#	162683
#	184575
#	197529
#	220729
#
# Disc length: 3134 seconds
#
# Revision: 0
# Processed by: cddbd v1.5.2PL0 Copyright (c) Steve Scherf et al.
# Submitted via: CDex 1.51
#
DISCID=c40c3c0e
DTITLE=The Trishas - High, Wide and Handsome
DYEAR=2012
DGENRE=Country
TTITLE0=Mother Of Invention
TTITLE1=Strangers
TTITLE2=Little Sweet Cigars
TTITLE3=Liars and Fools
TTITLE4=Cheater's Game
TTITLE5=Looking At Me
TTITLE6=Why
TTITLE7=Over Forgiving You
TTITLE8=One Down
TTITLE9=Cold Blooded Love
TTITLE10=Rainin' Inside
TTITLE11=The Fool
TTITLE12=John Wayne Cowboy
TTITLE13=Gold and Silver
EXTD=YEAR: 2012
EXTT0=
EXTT1=
EXTT2=
EXTT3=
EXTT4=
EXTT5=
EXTT6=
EXTT7=
EXTT8=
EXTT9=
EXTT10=
EXTT11=
EXTT12=
EXTT13=
PLAYORDER=
